# xmcd
#
# Track frame offsets: 
#        150
#        19105
#        36545
#        55842
#        76370
#        93197
#        111877
#        133150
#        151082
#
# Disc length: 2246 seconds
#
# Revision: 0
# Processed by: cddbd v1.5.1PL2 Copyright (c) Steve Scherf et al.
# Submitted via: ExactAudioCopy v0.95b3
#
DISCID=6c08c409
DTITLE=Clarence Carter - Carter's Corner
DYEAR=1996
DGENRE=Soul
TTITLE0=Sugar Daddy
TTITLE1=I Know I Got To Do
TTITLE2=Hen House Ways
TTITLE3=Takes Only A Minute
TTITLE4=Just Don't Get Caught
TTITLE5=Forget This
TTITLE6=You Were Not Here
TTITLE7=Moving In
TTITLE8=I Don't Belong
EXTD=
EXTT0=
EXTT1=
EXTT2=
EXTT3=
EXTT4=
EXTT5=
EXTT6=
EXTT7=
EXTT8=
PLAYORDER=
